<svg width="300" height="245" viewBox="0 0 300 245" fill="none" xmlns="http://www.w3.org/2000/svg">
<path d="M53.491 105.298C37.7144 119.876 27.8352 140.743 27.8352 163.917C27.8352 207.986 63.5601 243.711 107.629 243.711C118.199 243.711 126.125 244.12 136.083 244.12C141.031 244.12 162.747 244.12 176.289 244.12C244.613 244.12 300 188.733 300 120.409C300 108.491 298.315 96.9669 295.17 86.0616C292.973 78.4464 283.735 76.1747 276.966 80.2969C258.8 91.3596 237.464 97.7319 214.639 97.7319C202.794 97.7319 191.35 96.0157 180.542 92.8184C184.176 84.8231 186.186 76.0321 186.186 66.8041C186.186 29.9092 154.061 0 114.433 0C74.8052 0 42.6805 29.9092 42.6805 66.8041C42.6805 79.9787 46.7767 92.2625 53.8481 102.612C53.7195 103.504 53.6005 104.4 53.491 105.298Z" fill="#F8F451"/>
<circle cx="79.1754" cy="62.8832" r="8.65979" fill="black"/>
<path d="M44.871 62.1363C47.603 60.0725 51.3711 60.0659 54.1102 62.1203V62.1203C55.8872 63.453 57.0003 65.4897 57.1624 67.705L58.7629 89.5789L68.7694 96.7264C72.6635 99.5078 73.2608 105.063 70.047 108.609L66.2128 112.839C64.4739 114.757 61.914 115.716 59.3428 115.411L29.1021 111.823C27.7091 111.658 26.4181 111.009 25.4533 109.991L15.8123 99.8145L10.1783 96.7808C8.64914 95.9574 7.55018 94.5047 7.16822 92.8104V92.8104C6.35042 89.183 8.13613 85.4539 11.4831 83.8338L24.4722 77.5465L44.871 62.1363Z" fill="#E5A73A"/>
<path d="M53.491 105.298C37.7144 119.876 27.8352 140.743 27.8352 163.917C27.8352 207.986 63.5601 243.711 107.629 243.711C118.199 243.711 126.125 244.12 136.083 244.12C141.031 244.12 162.747 244.12 176.289 244.12C244.613 244.12 300 188.733 300 120.409C300 108.491 298.315 96.9669 295.17 86.0616C292.973 78.4464 283.735 76.1747 276.966 80.2969C258.8 91.3596 237.464 97.7319 214.639 97.7319C202.794 97.7319 191.35 96.0157 180.542 92.8184C184.176 84.8231 186.186 76.0321 186.186 66.8041C186.186 29.9092 154.061 0 114.433 0C74.8052 0 42.6805 29.9092 42.6805 66.8041C42.6805 79.9787 46.7767 92.2625 53.8481 102.612C53.7195 103.504 53.6005 104.4 53.491 105.298Z" fill="#F8F451"/>
<circle cx="79.1754" cy="62.8832" r="8.65979" fill="black"/>
<path d="M44.871 62.1363C47.603 60.0725 51.3711 60.0659 54.1102 62.1203V62.1203C55.8872 63.453 57.0003 65.4897 57.1624 67.705L58.7629 89.5789L68.7694 96.7264C72.6635 99.5078 73.2608 105.063 70.047 108.609L66.2128 112.839C64.4739 114.757 61.914 115.716 59.3428 115.411L29.1021 111.823C27.7091 111.658 26.4181 111.009 25.4533 109.991L15.8123 99.8145L10.1783 96.7808C8.64914 95.9574 7.55018 94.5047 7.16822 92.8104V92.8104C6.35042 89.183 8.13613 85.4539 11.4831 83.8338L24.4722 77.5465L44.871 62.1363Z" fill="#E5A73A"/>
</svg>
