<?xml version="1.0" encoding="UTF-8"?>
<!--Generator: Apple Native CoreSVG 175.5-->
<!DOCTYPE svg
PUBLIC "-//W3C//DTD SVG 1.1//EN"
       "http://www.w3.org/Graphics/SVG/1.1/DTD/svg11.dtd">
<svg version="1.1" xmlns="http://www.w3.org/2000/svg" xmlns:xlink="http://www.w3.org/1999/xlink" width="37.6881" height="46.1523">
 <g>
  <rect height="46.1523" opacity="0" width="37.6881" x="0" y="0"/>
  <path d="M0.586029 10.4102C-0.214752 11.1719-0.17569 12.3047 0.586029 13.0273L10.6446 22.8711C10.9962 23.2227 11.504 23.4375 11.9337 23.4375C12.9688 23.4375 13.672 22.7148 13.672 21.6992C13.672 21.2109 13.4962 20.8203 13.1642 20.4883L8.96494 16.4258L5.33212 13.2812L9.84384 13.4766L35.9376 13.4766C36.9532 13.4766 37.6759 12.7539 37.6759 11.7188C37.6759 10.7031 36.9532 9.98047 35.9376 9.98047L9.84384 9.98047L5.33212 10.1562L8.96494 7.03125L13.1642 2.94922C13.4962 2.61719 13.672 2.24609 13.672 1.73828C13.672 0.722656 12.9688 0.0195312 11.9337 0.0195312C11.504 0.0195312 10.9962 0.214844 10.6446 0.566406ZM37.1095 35.7617C37.8907 35 37.8712 33.8672 37.1095 33.125L27.0509 23.2812C26.6993 22.9492 26.1915 22.7344 25.7423 22.7344C24.7071 22.7344 24.0235 23.4375 24.0235 24.4531C24.0235 24.9609 24.1798 25.3516 24.5118 25.6641L28.7306 29.7461L32.3634 32.8906L27.8517 32.6953L1.7579 32.6953C0.742279 32.6953 9.15241e-05 33.418 9.15241e-05 34.4336C9.15241e-05 35.4688 0.742279 36.1914 1.7579 36.1914L27.8517 36.1914L32.3634 35.9961L28.7306 39.1406L24.5118 43.2031C24.1798 43.5352 24.0235 43.9258 24.0235 44.4336C24.0235 45.4492 24.7071 46.1523 25.7423 46.1523C26.1915 46.1523 26.6993 45.9375 27.0509 45.6055Z" fill="#ffffff" fill-opacity="0.85"/>
 </g>
</svg>
