<?xml version="1.0" encoding="UTF-8"?>
<!--Generator: Apple Native CoreSVG 175.5-->
<!DOCTYPE svg
PUBLIC "-//W3C//DTD SVG 1.1//EN"
       "http://www.w3.org/Graphics/SVG/1.1/DTD/svg11.dtd">
<svg version="1.1" xmlns="http://www.w3.org/2000/svg" xmlns:xlink="http://www.w3.org/1999/xlink" width="36.4453" height="37.1289">
 <g>
  <rect height="37.1289" opacity="0" width="36.4453" x="0" y="0"/>
  <path d="M23.9844 0C16.5234 0 11.3672 5.05859 11.3672 13.9844L11.3672 27.1875L11.6406 33.2422L12.5391 32.8906L8.41797 28.0664L2.91016 22.4414C2.61719 22.1289 2.22656 21.9531 1.71875 21.9531C0.703125 21.9531 0 22.6562 0 23.6914C0 24.1211 0.214844 24.6289 0.546875 24.9609L11.8164 36.4453C12.1875 36.8359 12.6367 37.0117 13.125 37.0117C13.5938 37.0117 14.043 36.8359 14.4141 36.4453L25.6836 24.9609C26.0352 24.6289 26.2305 24.1211 26.2305 23.6914C26.2305 22.6562 25.5273 21.9531 24.5117 21.9531C24.0039 21.9531 23.6328 22.1289 23.3203 22.4414L17.832 28.0664L13.6914 32.8906L14.5898 33.2422L14.8633 27.1875L14.8633 13.6719C14.8633 7.01172 18.5352 3.49609 23.7891 3.49609C29.0625 3.49609 32.9688 7.01172 32.9688 13.6719L32.9688 18.1641C32.9688 19.2383 33.75 19.9414 34.707 19.9414C35.6641 19.9414 36.4453 19.2383 36.4453 18.1641L36.4453 13.6719C36.4453 4.92188 31.4648 0 23.9844 0Z" fill="#ffffff" fill-opacity="0.85"/>
 </g>
</svg>
