<?xml version="1.0" encoding="UTF-8"?>
<!--Generator: Apple Native CoreSVG 175.5-->
<!DOCTYPE svg
PUBLIC "-//W3C//DTD SVG 1.1//EN"
       "http://www.w3.org/Graphics/SVG/1.1/DTD/svg11.dtd">
<svg version="1.1" xmlns="http://www.w3.org/2000/svg" xmlns:xlink="http://www.w3.org/1999/xlink" width="35.9975" height="37.1289">
 <g>
  <rect height="37.1289" opacity="0" width="35.9975" x="0" y="0"/>
  <path d="M18.0028 37.1289C19.0966 37.1289 19.702 36.4062 19.702 35.0586L19.702 23.8477C19.702 19.1602 24.8973 12.3633 29.702 9.29688L31.2645 8.28125C31.8114 7.94922 32.1044 7.34375 32.1044 6.75781C32.1044 5.80078 31.4403 5.13672 30.4442 5.13672C29.9559 5.13672 29.4286 5.3125 28.9598 5.625L27.9247 6.30859C23.1786 9.47266 18.6278 15.4688 18.0223 18.4961L17.9638 18.4961C17.3583 15.4492 12.827 9.47266 8.08094 6.30859L7.04578 5.625C6.5575 5.3125 6.04969 5.13672 5.54188 5.13672C4.54578 5.13672 3.90125 5.85938 3.90125 6.73828C3.90125 7.32422 4.19422 7.94922 4.7411 8.28125L6.3036 9.29688C11.0888 12.3633 16.3036 19.1602 16.3036 23.8477L16.3036 35.0586C16.3036 36.4062 16.9091 37.1289 18.0028 37.1289ZM4.56531 11.6797L10.0341 4.58984C10.8739 3.49609 10.3466 2.61719 9.03797 2.55859L1.44031 2.22656C0.346565 2.16797-0.239373 2.89062 0.0926586 3.96484L2.33875 11.2109C2.72938 12.5 3.70594 12.793 4.56531 11.6797ZM31.2059 11.6602C32.0263 12.793 33.0223 12.5391 33.4325 11.2695L35.8934 4.08203C36.245 3.02734 35.6786 2.28516 34.6044 2.30469L26.9872 2.42188C25.6786 2.44141 25.1317 3.30078 25.9325 4.41406Z" fill="#ffffff" fill-opacity="0.85"/>
 </g>
</svg>
