<?xml version="1.0" encoding="UTF-8"?>
<!--Generator: Apple Native CoreSVG 175.5-->
<!DOCTYPE svg
PUBLIC "-//W3C//DTD SVG 1.1//EN"
       "http://www.w3.org/Graphics/SVG/1.1/DTD/svg11.dtd">
<svg version="1.1" xmlns="http://www.w3.org/2000/svg" xmlns:xlink="http://www.w3.org/1999/xlink" width="31.8555" height="31.0742">
 <g>
  <rect height="31.0742" opacity="0" width="31.8555" x="0" y="0"/>
  <path d="M29.5117 0.0195312C28.7305 0.0195312 28.1055 0.351562 27.2852 0.761719L2.1875 12.9492C0.527344 13.7695 0 14.5117 0 15.5469C0 16.582 0.527344 17.3438 2.1875 18.1641L27.2852 30.332C28.125 30.7422 28.75 31.0742 29.5312 31.0742C30.9766 31.0742 31.8555 29.9805 31.8555 28.2812L31.8555 2.8125C31.8555 1.11328 30.957 0.0195312 29.5117 0.0195312ZM28.5156 3.73047C28.6328 3.73047 28.7109 3.82812 28.7109 3.96484L28.7305 27.1289C28.7305 27.2852 28.6523 27.3633 28.5352 27.3633C28.457 27.3633 28.3789 27.3242 28.3008 27.2852L4.375 15.7617C4.27734 15.7227 4.19922 15.6445 4.19922 15.5469C4.19922 15.4492 4.27734 15.3711 4.375 15.332L28.2812 3.82812C28.3594 3.76953 28.4375 3.73047 28.5156 3.73047Z" fill="#ffffff" fill-opacity="0.85"/>
 </g>
</svg>
