<?xml version="1.0" encoding="UTF-8"?>
<!--Generator: Apple Native CoreSVG 175.5-->
<!DOCTYPE svg
PUBLIC "-//W3C//DTD SVG 1.1//EN"
       "http://www.w3.org/Graphics/SVG/1.1/DTD/svg11.dtd">
<svg version="1.1" xmlns="http://www.w3.org/2000/svg" xmlns:xlink="http://www.w3.org/1999/xlink" width="36.8555" height="40.3711">
 <g>
  <rect height="40.3711" opacity="0" width="36.8555" x="0" y="0"/>
  <path d="M0 30.918C0 32.3438 1.09375 33.2812 2.94922 33.2812L11.1914 33.2812C11.3477 37.0508 14.2969 40.3516 18.418 40.3516C22.5586 40.3516 25.5078 37.0703 25.6641 33.2812L33.9062 33.2812C35.7422 33.2812 36.8555 32.3438 36.8555 30.918C36.8555 28.9648 34.8633 27.207 33.1836 25.4688C31.8945 24.1211 31.543 21.3477 31.3867 19.1016C31.25 11.4062 29.2578 6.44531 24.0625 4.57031C23.3984 2.01172 21.3086 0 18.418 0C15.5469 0 13.4375 2.01172 12.793 4.57031C7.59766 6.44531 5.60547 11.4062 5.46875 19.1016C5.3125 21.3477 4.96094 24.1211 3.67188 25.4688C1.97266 27.207 0 28.9648 0 30.918ZM3.78906 30.332L3.78906 30.0977C4.14062 29.5312 5.3125 28.3789 6.32812 27.2461C7.73438 25.6836 8.39844 23.1641 8.57422 19.3555C8.73047 10.8203 11.2695 8.10547 14.6094 7.1875C15.0977 7.07031 15.3711 6.83594 15.3906 6.32812C15.4492 4.29688 16.6211 2.87109 18.418 2.87109C20.2344 2.87109 21.3867 4.29688 21.4648 6.32812C21.4844 6.83594 21.7383 7.07031 22.2266 7.1875C25.5859 8.10547 28.125 10.8203 28.2812 19.3555C28.457 23.1641 29.1211 25.6836 30.5078 27.2461C31.543 28.3789 32.6953 29.5312 33.0469 30.0977L33.0469 30.332ZM14.2383 33.2812L22.6172 33.2812C22.4609 35.9375 20.7812 37.5977 18.418 37.5977C16.0742 37.5977 14.375 35.9375 14.2383 33.2812Z" fill="#ffffff" fill-opacity="0.85"/>
 </g>
</svg>
