<?xml version="1.0" encoding="UTF-8"?>
<!--Generator: Apple Native CoreSVG 175.5-->
<!DOCTYPE svg
PUBLIC "-//W3C//DTD SVG 1.1//EN"
       "http://www.w3.org/Graphics/SVG/1.1/DTD/svg11.dtd">
<svg version="1.1" xmlns="http://www.w3.org/2000/svg" xmlns:xlink="http://www.w3.org/1999/xlink" width="43.6354" height="39.8633">
 <g>
  <rect height="39.8633" opacity="0" width="43.6354" x="0" y="0"/>
  <path d="M22.9714 8.47656C22.112 8.47656 21.4089 9.16016 21.4089 10.0195L21.4089 20.918C21.4089 21.3672 21.5456 21.7578 21.8776 22.1875L26.7019 28.5547C27.3464 29.3945 28.2448 29.5312 29.0456 28.9844C29.7683 28.4766 29.8269 27.5586 29.2409 26.7578L22.737 17.9883L24.5144 23.457L24.5144 10.0195C24.5144 9.16016 23.8308 8.47656 22.9714 8.47656ZM23.7136 39.8438C34.5925 39.8438 43.6354 30.8008 43.6354 19.9219C43.6354 9.02344 34.5925 0 23.7136 0C12.8151 0 3.7917 9.00391 3.7917 19.9023L7.11201 19.9023C7.11201 10.6836 14.4948 3.33984 23.7136 3.33984C32.9323 3.33984 40.3151 10.7031 40.3151 19.9219C40.3151 29.1406 32.9323 36.5625 23.7136 36.5234C18.1472 36.5039 13.2644 33.8086 10.2761 29.6484C9.6706 28.8477 8.75264 28.5938 7.93232 29.082C7.15107 29.5703 6.93623 30.6445 7.60029 31.5039C11.3112 36.4844 17.1315 39.8438 23.7136 39.8438ZM1.38935 16.1523C-0.016896 16.1523-0.368458 17.1094 0.39326 18.2031L4.76826 24.4141C5.41279 25.3125 6.35029 25.293 6.97529 24.4141L11.3503 18.1836C12.0925 17.1094 11.7409 16.1523 10.3542 16.1523Z" fill="#ffffff" fill-opacity="0.85"/>
 </g>
</svg>
