<?xml version="1.0" encoding="UTF-8"?>
<!--Generator: Apple Native CoreSVG 175.5-->
<!DOCTYPE svg
PUBLIC "-//W3C//DTD SVG 1.1//EN"
       "http://www.w3.org/Graphics/SVG/1.1/DTD/svg11.dtd">
<svg version="1.1" xmlns="http://www.w3.org/2000/svg" xmlns:xlink="http://www.w3.org/1999/xlink" width="41.7969" height="41.7773">
 <g>
  <rect height="41.7773" opacity="0" width="41.7969" x="0" y="0"/>
  <path d="M18.9258 41.7578L22.8711 41.7578C24.375 41.7578 25.5273 40.8398 25.8789 39.3945L26.7188 35.7422L27.3438 35.5273L30.5273 37.4805C31.7969 38.2812 33.2617 38.0859 34.3359 37.0117L37.0703 34.2969C38.1445 33.2227 38.3398 31.7383 37.5391 30.4883L35.5469 27.3242L35.7812 26.7383L39.4336 25.8789C40.8594 25.5273 41.7969 24.3555 41.7969 22.8711L41.7969 19.0039C41.7969 17.5195 40.8789 16.3477 39.4336 15.9961L35.8203 15.1172L35.5664 14.4922L37.5586 11.3281C38.3594 10.0781 38.1641 8.61328 37.0898 7.51953L34.3555 4.78516C33.3008 3.73047 31.8359 3.53516 30.5664 4.31641L27.3828 6.26953L26.7188 6.01562L25.8789 2.36328C25.5273 0.917969 24.375 0 22.8711 0L18.9258 0C17.4219 0 16.2695 0.917969 15.918 2.36328L15.0586 6.01562L14.3945 6.26953L11.2305 4.31641C9.96094 3.53516 8.47656 3.73047 7.42188 4.78516L4.70703 7.51953C3.63281 8.61328 3.41797 10.0781 4.23828 11.3281L6.21094 14.4922L5.97656 15.1172L2.36328 15.9961C0.917969 16.3477 0 17.5195 0 19.0039L0 22.8711C0 24.3555 0.9375 25.5273 2.36328 25.8789L6.01562 26.7383L6.23047 27.3242L4.25781 30.4883C3.4375 31.7383 3.65234 33.2227 4.72656 34.2969L7.44141 37.0117C8.51562 38.0859 10 38.2812 11.2695 37.4805L14.4336 35.5273L15.0586 35.7422L15.918 39.3945C16.2695 40.8398 17.4219 41.7578 18.9258 41.7578ZM19.2383 38.7109C18.9062 38.7109 18.7305 38.5742 18.6719 38.2617L17.5 33.418C16.3086 33.125 15.1953 32.6562 14.3555 32.1289L10.0977 34.7461C9.86328 34.9219 9.60938 34.8828 9.375 34.6484L7.07031 32.3438C6.85547 32.1289 6.83594 31.8945 6.99219 31.6211L9.60938 27.4023C9.16016 26.582 8.65234 25.4688 8.33984 24.2773L3.49609 23.125C3.18359 23.0664 3.04688 22.8906 3.04688 22.5586L3.04688 19.2969C3.04688 18.9453 3.16406 18.7891 3.49609 18.7305L8.32031 17.5586C8.63281 16.2891 9.21875 15.1367 9.57031 14.4141L6.97266 10.1953C6.79688 9.90234 6.81641 9.66797 7.03125 9.43359L9.35547 7.16797C9.58984 6.93359 9.80469 6.89453 10.0977 7.07031L14.3164 9.62891C15.1562 9.16016 16.3477 8.67188 17.5195 8.33984L18.6719 3.49609C18.7305 3.18359 18.9062 3.04688 19.2383 3.04688L22.5586 3.04688C22.8906 3.04688 23.0664 3.18359 23.1055 3.49609L24.2969 8.37891C25.5078 8.69141 26.5625 9.17969 27.4414 9.64844L31.6797 7.07031C31.9922 6.89453 32.1875 6.93359 32.4414 7.16797L34.7461 9.43359C34.9805 9.66797 34.9805 9.90234 34.8047 10.1953L32.207 14.4141C32.5781 15.1367 33.1445 16.2891 33.457 17.5586L38.3008 18.7305C38.6133 18.7891 38.75 18.9453 38.75 19.2969L38.75 22.5586C38.75 22.8906 38.5938 23.0664 38.3008 23.125L33.4375 24.2773C33.125 25.4688 32.6367 26.582 32.168 27.4023L34.7852 31.6211C34.9414 31.8945 34.9414 32.1289 34.707 32.3438L32.4219 34.6484C32.168 34.8828 31.9336 34.9219 31.6797 34.7461L27.4219 32.1289C26.582 32.6562 25.4883 33.125 24.2969 33.418L23.1055 38.2617C23.0664 38.5742 22.8906 38.7109 22.5586 38.7109ZM20.8984 28.3398C24.9805 28.3398 28.3398 24.9805 28.3398 20.8789C28.3398 16.8164 24.9805 13.457 20.8984 13.457C16.8164 13.457 13.4375 16.8164 13.4375 20.8789C13.4375 24.9609 16.7969 28.3398 20.8984 28.3398ZM20.8984 25.3125C18.4766 25.3125 16.4844 23.3203 16.4844 20.8789C16.4844 18.4766 18.4766 16.4844 20.8984 16.4844C23.2812 16.4844 25.2734 18.4766 25.2734 20.8789C25.2734 23.3008 23.2812 25.3125 20.8984 25.3125Z" fill="#ffffff" fill-opacity="0.85"/>
 </g>
</svg>
